<svg xmlns="http://www.w3.org/2000/svg" width="800" height="450" viewBox="0 0 800 450" preserveAspectRatio="xMidYMid slice">
  <defs>
    <linearGradient id="bg6" x1="0%" y1="0%" x2="100%" y2="100%">
      <stop offset="0%" style="stop-color:#FF3500;stop-opacity:0.1" />
      <stop offset="100%" style="stop-color:#F8674F;stop-opacity:0.1" />
    </linearGradient>
    <linearGradient id="hubGrad" x1="0%" y1="0%" x2="100%" y2="100%">
      <stop offset="0%" style="stop-color:#FF3500" />
      <stop offset="100%" style="stop-color:#F8674F" />
    </linearGradient>
  </defs>
  
  <!-- Background -->
  <rect width="800" height="450" fill="url(#bg6)" rx="12"/>
  
  <!-- Left side - Attack vectors -->
  
  <!-- Email attack vector -->
  <rect x="120" y="160" width="80" height="56" fill="none" stroke="#FF3500" stroke-width="4" rx="6"/>
  <path d="M120 160 L160 185 L200 160" stroke="#FF3500" stroke-width="4" fill="none"/>
  <text x="160" y="235" text-anchor="middle" fill="#FF3500" font-family="Arial, sans-serif" font-size="16" font-weight="bold">EMAIL</text>
  <text x="160" y="255" text-anchor="middle" fill="#374151" font-family="Arial, sans-serif" font-size="12">Phishing</text>
  <text x="160" y="270" text-anchor="middle" fill="#374151" font-family="Arial, sans-serif" font-size="12">Spoofing</text>
  
  <!-- SMS attack vector -->
  <rect x="120" y="300" width="50" height="80" fill="none" stroke="#F8674F" stroke-width="4" rx="8"/>
  <rect x="130" y="310" width="30" height="40" fill="none" stroke="#F8674F" stroke-width="2"/>
  <line x1="135" y1="365" x2="165" y2="365" stroke="#F8674F" stroke-width="4" stroke-linecap="round"/>
  <text x="145" y="395" text-anchor="middle" fill="#F8674F" font-family="Arial, sans-serif" font-size="16" font-weight="bold">SMS</text>
  <text x="145" y="415" text-anchor="middle" fill="#374151" font-family="Arial, sans-serif" font-size="12">Smishing</text>
  
  <!-- Voice attack vector -->
  <circle cx="160" cy="120" r="30" fill="none" stroke="#FF3500" stroke-width="4"/>
  <path d="M140 110 Q160 100 180 110 Q185 120 180 130 Q160 140 140 130 Q135 120 140 110 Z" fill="none" stroke="#FF3500" stroke-width="3"/>
  <path d="M150 120 Q160 110 170 120" stroke="#FF3500" stroke-width="2" fill="none"/>
  <text x="160" y="70" text-anchor="middle" fill="#FF3500" font-family="Arial, sans-serif" font-size="16" font-weight="bold">VOICE</text>
  <text x="160" y="50" text-anchor="middle" fill="#374151" font-family="Arial, sans-serif" font-size="12">Vishing</text>
  
  <!-- Central coordination hub -->
  <circle cx="400" cy="225" r="60" fill="none" stroke="url(#hubGrad)" stroke-width="6"/>
  <circle cx="400" cy="225" r="20" fill="url(#hubGrad)"/>
  <text x="400" y="310" text-anchor="middle" fill="#FF3500" font-family="Arial, sans-serif" font-size="20" font-weight="bold">COORDINATED</text>
  <text x="400" y="335" text-anchor="middle" fill="#374151" font-family="Arial, sans-serif" font-size="16">Attack Hub</text>
  
  <!-- Timing coordination indicators -->
  <circle cx="400" cy="225" r="80" fill="none" stroke="#FF3500" stroke-width="2" opacity="0.4" stroke-dasharray="12,12"/>
  <circle cx="400" cy="225" r="100" fill="none" stroke="#F8674F" stroke-width="2" opacity="0.3" stroke-dasharray="16,16"/>
  
  <!-- Right side - Target and impact -->
  
  <!-- Target victim -->
  <rect x="580" y="180" width="100" height="90" fill="none" stroke="#374151" stroke-width="4" rx="8"/>
  <circle cx="610" cy="210" r="15" fill="none" stroke="#374151" stroke-width="3"/>
  <circle cx="605" cy="206" r="3" fill="#374151"/>
  <circle cx="615" cy="206" r="3" fill="#374151"/>
  <path d="M595 225 Q610 235 625 225" stroke="#374151" stroke-width="3" fill="none"/>
  
  <!-- Computer/device -->
  <rect x="620" y="230" width="40" height="25" fill="none" stroke="#6B7280" stroke-width="2" rx="2"/>
  <rect x="625" y="235" width="30" height="15" fill="#374151"/>
  
  <text x="630" y="285" text-anchor="middle" fill="#374151" font-family="Arial, sans-serif" font-size="14" font-weight="bold">VICTIM</text>
  <text x="630" y="300" text-anchor="middle" fill="#6B7280" font-family="Arial, sans-serif" font-size="12">Executive</text>
  
  <!-- Connection lines from attack vectors to hub -->
  <path d="M200 188 L340 210" stroke="#FF3500" stroke-width="4" fill="none" stroke-dasharray="10,10" marker-end="url(#coordArrow)"/>
  <path d="M170 340 L350 250" stroke="#F8674F" stroke-width="4" fill="none" stroke-dasharray="10,10" marker-end="url(#coordArrow2)"/>
  <path d="M190 135 L345 200" stroke="#FF3500" stroke-width="4" fill="none" stroke-dasharray="10,10" marker-end="url(#coordArrow)"/>
  
  <!-- Connection from hub to target -->
  <path d="M460 225 L575 225" stroke="#FF3500" stroke-width="6" fill="none" stroke-dasharray="15,15" marker-end="url(#targetArrow)"/>
  
  <!-- Arrow markers -->
  <defs>
    <marker id="coordArrow" markerWidth="12" markerHeight="8" refX="12" refY="4" orient="auto">
      <polygon points="0 0, 12 4, 0 8" fill="#FF3500"/>
    </marker>
    <marker id="coordArrow2" markerWidth="12" markerHeight="8" refX="12" refY="4" orient="auto">
      <polygon points="0 0, 12 4, 0 8" fill="#F8674F"/>
    </marker>
    <marker id="targetArrow" markerWidth="15" markerHeight="10" refX="15" refY="5" orient="auto">
      <polygon points="0 0, 15 5, 0 10" fill="#FF3500"/>
    </marker>
  </defs>
  
  <!-- Attack timeline -->
  <rect x="50" y="380" width="700" height="60" fill="rgba(255, 255, 255, 0.9)" rx="8" stroke="#E5E7EB" stroke-width="2"/>
  <text x="400" y="400" text-anchor="middle" fill="#FF3500" font-family="Arial, sans-serif" font-size="18" font-weight="bold">Synchronized Attack Timeline:</text>
  <text x="200" y="420" text-anchor="middle" fill="#374151" font-family="Arial, sans-serif" font-size="14">1. Email priming</text>
  <text x="400" y="420" text-anchor="middle" fill="#374151" font-family="Arial, sans-serif" font-size="14">2. SMS urgency</text>
  <text x="600" y="420" text-anchor="middle" fill="#374151" font-family="Arial, sans-serif" font-size="14">3. Voice confirmation</text>
  
  <!-- Title -->
  <text x="400" y="30" text-anchor="middle" fill="#374151" font-family="Arial, sans-serif" font-size="28" font-weight="bold">Multi-Channel Coordination</text>
  <text x="400" y="55" text-anchor="middle" fill="#6B7280" font-family="Arial, sans-serif" font-size="16">Email + SMS + Voice | Trend Micro Research</text>
  
  <!-- Complexity indicator -->
  <text x="400" y="100" text-anchor="middle" fill="#F8674F" font-family="Arial, sans-serif" font-size="18" font-weight="bold">Sophisticated Multi-Vector Campaigns</text>
</svg>